<svg width="80" height="80" viewBox="0 0 80 80" fill="none" xmlns="http://www.w3.org/2000/svg">
<rect width="80" height="80" rx="40" fill="#29AC56"/>
<path d="M42.917 60.4167V69.1667" stroke="#F9FCFF" stroke-width="2" stroke-linecap="round" stroke-linejoin="round"/>
<path d="M39.9997 60.4167H64.208C64.7789 60.4086 65.3348 60.2333 65.807 59.9123C66.2791 59.5912 66.6466 59.1387 66.864 58.6108C67.0814 58.0829 67.1391 57.5028 67.0299 56.9424C66.9206 56.382 66.6494 55.866 66.2497 55.4583L57.4997 45.8333H58.3747C58.9455 45.8253 59.5015 45.6499 59.9736 45.3289C60.4458 45.0079 60.8133 44.5554 61.0307 44.0275C61.2481 43.4996 61.3057 42.9194 61.1965 42.3591C61.0873 41.7987 60.816 41.2827 60.4163 40.875L51.6663 31.25H52.2497C52.8454 31.3037 53.4433 31.173 53.9622 30.8755C54.4811 30.5781 54.8961 30.1283 55.1508 29.587C55.4055 29.0458 55.4876 28.4394 55.386 27.8499C55.2845 27.2604 55.0041 26.7164 54.583 26.2917L42.9163 13.75L38.5 24.5" stroke="#F9FCFF" stroke-width="2" stroke-linecap="round" stroke-linejoin="round"/>
<g clip-path="url(#clip0_405_60)">
<path d="M28.1687 55.0949C25.254 55.3588 22.3466 54.5177 20.0231 52.7383C17.6996 50.9589 16.1298 48.3712 15.6249 45.4885C15.12 42.6058 15.717 39.6386 17.2974 37.1755C18.8779 34.7123 21.3263 32.9331 24.1572 32.1907C33.4612 29.5364 35.8762 28.4552 38.8366 24.047C40.7874 27.2224 42.7644 30.6967 43.3193 37.0391C44.1182 46.1709 36.8356 54.3367 28.1687 55.0949Z" stroke="#F9FCFF" stroke-width="2" stroke-linecap="round" stroke-linejoin="round"/>
<path d="M13.3708 58.0625C12.935 53.0816 15.6638 48.8945 20.9337 47.3627C24.882 46.2142 28.812 43.3274 30.327 41.5218" stroke="#F9FCFF" stroke-width="2" stroke-linecap="round" stroke-linejoin="round"/>
</g>
<defs>
<clipPath id="clip0_405_60">
<rect width="40" height="40" fill="white" transform="translate(7 23.4863) rotate(-5)"/>
</clipPath>
</defs>
</svg>
